<svg xmlns="http://www.w3.org/2000/svg" width="572" height="44" viewBox="0 0 572 44">
<path d="M0 22 L22 11 L44 22 L22 33Z" fill="#cfbd83" stroke="#416657" stroke-width="0.5"/>
<path d="M44 22 L66 11 L88 22 L66 33Z" fill="#8da566" stroke="#416657" stroke-width="0.5"/>
<path d="M88 22 L110 11 L132 22 L110 33Z" fill="#719854" stroke="#416657" stroke-width="0.5"/>
<path d="M132 22 L154 11 L176 22 L154 33Z" fill="#90ad65" stroke="#416657" stroke-width="0.5"/>
<path d="M176 22 L198 11 L220 22 L198 33Z" fill="#245568" stroke="#416657" stroke-width="0.5"/>
<path d="M220 22 L242 11 L264 22 L242 33Z" fill="#2e6575" stroke="#416657" stroke-width="0.5"/>
<path d="M264 22 L286 11 L308 22 L286 33Z" fill="#3f7780" stroke="#416657" stroke-width="0.5"/>
<path d="M308 22 L330 11 L352 22 L330 33Z" fill="#528a89" stroke="#416657" stroke-width="0.5"/>
<path d="M352 22 L374 11 L396 22 L374 33Z" fill="#729a92" stroke="#416657" stroke-width="0.5"/>
<path d="M396 22 L418 11 L440 22 L418 33Z" fill="#93a898" stroke="#416657" stroke-width="0.5"/>
<path d="M440 22 L462 11 L484 22 L462 33Z" fill="#afb49b" stroke="#416657" stroke-width="0.5"/>
<path d="M484 22 L506 11 L528 22 L506 33Z" fill="#c4bca0" stroke="#416657" stroke-width="0.5"/>
<path d="M528 22 L550 11 L572 22 L550 33Z" fill="#387049" stroke="#416657" stroke-width="0.5"/>
<path d="M548 27V17h4v10Z" fill="#785741"/><path d="M536 17L550 0L564 17Z" fill="#54844e"/>
</svg>